<svg width="304" height="304" viewBox="0 0 304 304" xmlns="http://www.w3.org/2000/svg">
    <g fill="none" fill-rule="evenodd">
        <g fill-rule="nonzero">
            <circle fill="#001E62" cx="152" cy="152" r="152"/>
            <path fill="#FFF" d="M120.061 111.414V73.741h-14.534v-7.604h37.028v7.604h-14.189v37.673zM157.781 112.105c-8.651 0-15.572-6.912-15.572-15.207 0-8.295 6.92-15.208 15.572-15.208s15.573 6.913 15.573 15.208c-.346 8.295-6.921 15.207-15.573 15.207zm0-23.156c-4.499 0-7.96 3.801-7.96 7.949 0 4.493 3.461 7.95 7.96 7.95 4.499 0 7.96-3.803 7.96-7.95 0-4.493-3.461-7.95-7.96-7.95zM181.313 126.967V82.382h7.613v2.073c2.423-1.728 5.191-2.765 7.96-2.765 8.65 0 15.572 6.913 15.572 15.208s-6.921 15.207-15.573 15.207c-3.114 0-5.882-.691-7.959-2.765v17.281h-7.613v.346zm7.613-29.724c.346 4.148 3.807 7.604 7.96 7.604 4.498 0 7.959-3.802 7.959-7.95 0-4.147-3.46-7.948-7.96-7.948-4.498 0-7.959 3.456-7.959 7.603v.691zM81.995 165.677L70.92 147.013h-5.537v18.664h-7.96V120.4h18.342c9.343 0 14.188 5.185 14.188 13.134 0 6.912-3.806 11.751-10.381 12.788l11.42 19.355h-8.998zm-5.883-26.613c3.807 0 6.229-2.074 6.229-5.53 0-3.456-2.422-5.53-6.229-5.53H65.73v11.06h10.382zM119.023 165.677v-1.728c-2.422 1.728-5.19 2.765-7.96 2.765-8.65 0-15.572-6.913-15.572-15.208s6.921-15.207 15.573-15.207c3.114 0 5.537.691 7.959 2.765v-2.074h7.613v29.032h-7.613v-.345zm-8.305-22.466c-4.5 0-7.96 3.802-7.96 7.95 0 4.493 3.46 7.949 7.96 7.949 4.498 0 7.959-3.802 7.959-7.95.346-4.147-3.46-7.949-7.96-7.949zM146.015 165.677h-7.267v-21.774h-4.499v-7.259h4.5v-10.023h7.612v10.023h7.614v7.259h-7.614v21.774zM167.125 153.58c.692 3.456 3.806 6.221 7.959 6.221 2.768 0 5.537-1.037 7.267-3.11l5.191 4.147c-2.768 3.456-7.267 5.53-12.458 5.53-8.651 0-15.573-6.567-15.573-15.207 0-8.295 5.883-15.553 15.227-15.553 8.651 0 14.534 6.912 14.534 15.207 0 .691 0 1.728-.346 2.42h-21.801v.345zm14.88-5.53c-.346-3.11-3.46-5.184-7.267-5.184-3.46 0-6.23 2.073-7.267 5.184h14.534zM219.033 165.677v-1.728c-2.422 1.728-5.19 2.765-7.96 2.765-8.65 0-15.572-6.913-15.572-15.208s6.921-15.207 15.573-15.207c3.114 0 5.537.691 7.96 2.765v-18.318h7.612v45.276h-7.613v-.345zm-7.96-22.466c-4.498 0-7.958 3.802-7.958 7.95 0 4.493 3.46 7.949 7.959 7.949s7.96-3.802 7.96-7.95c0-4.147-3.461-7.949-7.96-7.949z"/>
            <path d="M129.75 224.087v-7.604l11.074-10.368c5.883-5.53 8.306-9.332 8.306-13.48 0-3.801-2.077-6.566-5.883-6.566-3.115 0-5.537 2.073-6.575 6.566h-7.267c1.384-8.64 5.883-12.788 13.842-12.788 7.613 0 13.496 3.802 13.496 12.097 0 4.839-2.076 10.369-7.613 15.553l-9.69 8.986h16.957v7.258H129.75v.346zM193.079 208.188c0 8.641-3.807 16.59-13.842 16.59-9.69 0-13.843-7.258-13.843-16.59V195.4c0-8.295 4.5-15.553 13.843-15.553 8.997 0 13.842 6.913 13.842 15.553v12.788zm-7.613-11.75c0-5.185-1.73-9.333-6.575-9.333-4.5 0-6.575 3.802-6.575 9.332v11.751c0 5.53 1.384 9.678 6.575 9.678 5.19 0 6.575-3.802 6.575-9.678v-11.75zM205.19 224.087v-35.945h-6.92v-7.258h14.534v43.203h-7.613zM250.178 191.599c0 4.147-1.73 7.258-5.883 9.331 4.845 2.074 6.921 5.53 6.921 10.369 0 8.295-5.537 13.825-14.188 13.825-8.305 0-13.842-5.53-13.842-13.825 0-4.839 2.076-8.295 6.92-10.369-3.806-1.728-5.882-4.838-5.882-9.331 0-6.222 3.807-11.752 13.15-11.752 8.651.346 12.804 5.53 12.804 11.752zm-13.15 12.788c-4.153 0-6.575 3.456-6.575 6.912s2.076 6.567 6.575 6.567c4.499 0 6.575-3.11 6.575-6.567.346-3.456-2.076-6.912-6.575-6.912zm-5.537-12.443c0 2.765 1.73 5.184 5.537 5.184s5.537-2.765 5.537-5.184c0-2.42-1.384-5.184-5.537-5.184-3.46 0-5.537 2.765-5.537 5.184z" fill="#D6CF8D"/>
            <path d="M120.753 197.128c-.346-.69-.692-1.036-1.73-1.036H103.45s-.346 0-.346-.346l-4.844-14.862c-.347-.691-.693-1.037-1.73-1.037-1.039 0-1.385.346-1.731 1.037l-3.46 10.023c-1.039 2.765-3.807 4.148-5.191 4.839-1.385.346-3.807.691-5.883 0-2.423-.691-3.46-1.037-5.537-1.383l-.346 1.383c2.076.346 2.768.691 5.19 1.382 2.769 1.037 5.191.692 6.576 0 1.384-.345 4.844-2.073 6.229-5.53l3.46-10.023c0-.345.346-.345.346-.345s.346 0 .346.345l4.845 14.862c.346.691.692 1.037 1.73 1.037h15.573c.346 0 .346 0 .346.346v.345l-12.804 9.332c-.692.346-.692 1.037-.692 1.728l4.845 14.862v.346h-.347L97.221 215.1c-.692-.346-1.384-.346-2.076 0l-12.804 9.332c-.346.345-.692 0-1.038 0-.346-.346-.346-.346 0-1.037 0 0 4.152-11.06 5.537-14.862h-1.385c-1.384 3.802-5.536 14.516-5.536 14.516-.346 1.037 0 1.728.692 2.42.346.345.692.345 1.384.345.346 0 .692 0 1.384-.345l12.804-9.332h.346l12.804 9.332c.692.345 1.385.345 2.077 0 .692-.346.692-1.037.692-1.729l-4.845-14.861v-.346l12.804-9.332c.692-.691 1.038-1.382.692-2.074z" fill="#D5CF8D"/>
        </g>
        <circle fill="#001E62" fill-rule="nonzero" cx="152" cy="152" r="152"/>
        <path d="M129.25 110h-8.253V71.318h-14.994V63.38h38.178v7.938H129.25V110zm42.346-14.868c0 4.662-1.743 8.547-5.229 11.655-3.024 2.688-6.594 4.032-10.71 4.032-4.704 0-8.631-1.722-11.781-5.166-2.73-2.982-4.095-6.489-4.095-10.521 0-4.662 1.743-8.526 5.229-11.592 2.982-2.688 6.531-4.032 10.647-4.032 4.746 0 8.694 1.722 11.844 5.166 2.73 2.94 4.095 6.426 4.095 10.458zm-7.623 0c0-2.394-.924-4.41-2.772-6.048-1.596-1.428-3.444-2.142-5.544-2.142-2.436 0-4.473.924-6.111 2.772-1.428 1.554-2.142 3.36-2.142 5.418 0 2.394.903 4.431 2.709 6.111 1.596 1.428 3.444 2.142 5.544 2.142 2.436 0 4.494-.924 6.174-2.772 1.428-1.554 2.142-3.381 2.142-5.481zm24.202 30.807h-7.749V80.075h7.749v2.205c2.268-1.848 5.04-2.772 8.316-2.772 4.746 0 8.673 1.722 11.781 5.166 2.73 2.94 4.095 6.426 4.095 10.458 0 4.662-1.743 8.547-5.229 11.655-3.024 2.688-6.573 4.032-10.647 4.032-3.276 0-6.048-.924-8.316-2.772v17.892zm0-31.122v.693c.084 2.31 1.029 4.242 2.835 5.796 1.596 1.386 3.423 2.079 5.481 2.079 2.436 0 4.473-.924 6.111-2.772 1.428-1.554 2.142-3.381 2.142-5.481 0-2.352-.924-4.368-2.772-6.048-1.554-1.428-3.381-2.142-5.481-2.142-2.394 0-4.41.882-6.048 2.646-1.428 1.512-2.184 3.255-2.268 5.229zM89.705 167h-9.261l-11.277-19.341H63.56V167h-8.253v-46.62h18.9c4.956 0 8.735 1.407 11.34 4.221 2.226 2.394 3.339 5.544 3.339 9.45 0 3.78-1.05 6.846-3.15 9.198-1.849 2.1-4.39 3.423-7.623 3.969L89.705 167zM63.56 139.721h10.773c2.058 0 3.653-.567 4.788-1.701 1.008-.966 1.512-2.268 1.512-3.906 0-1.932-.651-3.423-1.953-4.473-1.093-.882-2.541-1.323-4.347-1.323H63.56v11.403zM126.065 167h-7.748v-1.953c-2.269 1.848-5.04 2.772-8.316 2.772-4.705 0-8.631-1.722-11.782-5.166-2.73-2.982-4.094-6.489-4.094-10.521 0-4.662 1.742-8.526 5.228-11.592 2.983-2.688 6.531-4.032 10.648-4.032 3.192 0 5.963.924 8.316 2.772v-2.205h7.749V167zm-7.748-14.868c0-2.394-.924-4.41-2.772-6.048-1.597-1.428-3.444-2.142-5.544-2.142-2.437 0-4.473.924-6.112 2.772-1.428 1.554-2.141 3.36-2.141 5.418 0 2.394.902 4.431 2.709 6.111 1.596 1.428 3.443 2.142 5.544 2.142 2.436 0 4.493-.924 6.173-2.772 1.429-1.554 2.142-3.381 2.142-5.481zm28.108-7.623V167h-7.75v-22.491h-4.725v-7.434h4.726v-10.143h7.749v10.143h7.938v7.434h-7.939zm44.613 10.08h-22.806c.505 2.016 1.533 3.591 3.088 4.725 1.47 1.008 3.212 1.512 5.228 1.512 3.235 0 5.691-1.113 7.371-3.339l5.292 4.221c-1.428 2.058-3.38 3.633-5.859 4.725-2.1.924-4.346 1.386-6.74 1.386-4.83 0-8.8-1.68-11.907-5.04-2.689-2.898-4.032-6.384-4.032-10.458 0-4.704 1.574-8.589 4.725-11.655 2.856-2.772 6.446-4.158 10.773-4.158 4.62 0 8.4 1.743 11.34 5.229 2.478 2.94 3.716 6.405 3.716 10.395 0 .924-.062 1.743-.189 2.457zm-22.554-5.67h14.931c-.252-1.596-1.154-2.919-2.708-3.969-1.345-.924-2.877-1.386-4.6-1.386-1.764 0-3.328.483-4.693 1.449-1.365.966-2.341 2.268-2.93 3.906zM230.108 167h-7.749v-1.953c-2.268 1.848-5.04 2.772-8.316 2.772-4.704 0-8.63-1.722-11.78-5.166-2.73-2.982-4.096-6.489-4.096-10.521 0-4.662 1.743-8.526 5.23-11.592 2.982-2.688 6.53-4.032 10.647-4.032 3.192 0 5.963.924 8.315 2.772v-18.9h7.75V167zm-7.749-14.868c0-2.394-.923-4.41-2.772-6.048-1.596-1.428-3.443-2.142-5.543-2.142-2.437 0-4.473.924-6.112 2.772-1.428 1.554-2.141 3.36-2.141 5.418 0 2.394.902 4.431 2.709 6.111 1.596 1.428 3.443 2.142 5.543 2.142 2.437 0 4.494-.924 6.174-2.772 1.429-1.554 2.142-3.381 2.142-5.481z" fill="#FFF"/>
        <path d="M157.974 226h-28.917v-8.064l12.032-11.277c3.109-2.94 5.355-5.544 6.742-7.812 1.386-2.268 2.079-4.473 2.079-6.615 0-2.226-.61-3.969-1.827-5.229-1.093-1.176-2.562-1.764-4.41-1.764-3.697 0-6.006 2.31-6.93 6.93h-7.875c1.344-9.114 6.278-13.671 14.805-13.671 4.62 0 8.231 1.197 10.835 3.591 2.479 2.31 3.718 5.481 3.718 9.513 0 6.006-2.688 11.55-8.065 16.632l-10.458 9.828h18.27V226zm35.322-30.618v13.608c0 5.502-1.323 9.849-3.97 13.041-2.604 3.192-6.278 4.788-11.024 4.788-5.293 0-9.24-1.953-11.844-5.859-2.1-3.108-3.15-7.098-3.15-11.97v-13.608c0-5.124 1.427-9.24 4.284-12.348 2.688-2.982 6.257-4.473 10.71-4.473 4.956 0 8.82 1.827 11.591 5.481 2.269 3.024 3.403 6.804 3.403 11.34zm-8.001 13.419v-12.726c0-3.192-.588-5.649-1.764-7.371-1.219-1.722-2.961-2.583-5.23-2.583-2.52 0-4.367 1.05-5.543 3.15-.967 1.68-1.45 3.948-1.45 6.804v12.726c0 3.528.525 6.111 1.576 7.749 1.134 1.806 2.94 2.709 5.418 2.709 2.73 0 4.64-1.071 5.733-3.213.84-1.68 1.26-4.095 1.26-7.245zM213.976 226h-8.253v-38.682h-7.497v-7.938h15.75zM237.676 178.561c4.746 0 8.358 1.407 10.836 4.221 1.932 2.226 2.898 4.977 2.898 8.253 0 4.578-2.037 7.875-6.111 9.891 4.872 2.058 7.308 5.754 7.308 11.088 0 4.704-1.596 8.442-4.788 11.214-2.73 2.394-6.195 3.591-10.395 3.591-4.746 0-8.505-1.554-11.277-4.662-2.436-2.688-3.654-6.069-3.654-10.143 0-5.334 2.436-9.03 7.308-11.088-4.116-2.016-6.174-5.313-6.174-9.891 0-3.864 1.26-6.93 3.78-9.198 2.478-2.184 5.901-3.276 10.269-3.276zm-.252 7.308c-1.848 0-3.339.63-4.473 1.89-.924 1.05-1.386 2.226-1.386 3.528 0 1.638.567 3.003 1.701 4.095 1.092 1.092 2.52 1.638 4.284 1.638 1.974 0 3.528-.672 4.662-2.016.84-1.05 1.26-2.289 1.26-3.717 0-1.638-.483-2.94-1.449-3.906-1.05-1.008-2.583-1.512-4.599-1.512zm.126 33.39c2.394-.042 4.242-.882 5.544-2.52 1.05-1.26 1.575-2.772 1.575-4.536 0-2.142-.693-3.948-2.079-5.418-1.344-1.386-3.003-2.079-4.977-2.079h-.126c-2.31 0-4.137.882-5.481 2.646-1.05 1.386-1.575 3.003-1.575 4.851 0 2.058.672 3.759 2.016 5.103 1.26 1.26 2.961 1.911 5.103 1.953z" fill="#D6CF8D"/>
        <path d="M86.58 207.821l-4.936 15.668c-.165.527.065.694.514.374l13.376-9.536 13.412 9.618c.444.32.665.148.498-.368l-5.119-15.753 13.367-9.785c.444-.325.351-.59-.192-.591l-16.566-.06-5.118-15.753c-.17-.522-.429-.522-.582.012 0 0-3.077 10.855-4.273 12.886-1.42 2.41-4.381 3.904-8.776 3.904-4.68 0-14.507-1.888-14.507-1.888" stroke="#D6CF8D" stroke-width="5"/>
    </g>
</svg>
