<?xml version="1.0" encoding="utf-8"?>
<!-- Generator: Adobe Illustrator 23.0.6, SVG Export Plug-In . SVG Version: 6.00 Build 0)  -->
<svg version="1.1" xmlns="http://www.w3.org/2000/svg" xmlns:xlink="http://www.w3.org/1999/xlink" x="0px" y="0px"
	 viewBox="0 0 88 88" style="enable-background:new 0 0 88 88;" xml:space="preserve">
<style type="text/css">
	.st0{fill:#001E62;}
	.st1{fill:#FFFFFF;}
	.st2{fill:#D6CF8D;}
</style>
<g id="Layer_1">
</g>
<g id="cut">
	<g>
		<circle class="st0" cx="44" cy="44" r="44"/>
		<g>
			<g>
				<g>
					<path class="st1" d="M40.03,34.28h-2.75V21.41h-4.99v-2.64H45v2.64h-4.97V34.28z"/>
					<path class="st1" d="M54.86,29.33c0,1.55-0.58,2.85-1.74,3.88c-1.01,0.89-2.2,1.34-3.57,1.34c-1.57,0-2.87-0.57-3.92-1.72
						c-0.91-0.99-1.36-2.16-1.36-3.5c0-1.55,0.58-2.84,1.74-3.86c0.99-0.89,2.17-1.34,3.54-1.34c1.58,0,2.89,0.57,3.94,1.72
						C54.41,26.83,54.86,27.99,54.86,29.33z M52.33,29.33c0-0.8-0.31-1.47-0.92-2.01c-0.53-0.48-1.15-0.71-1.85-0.71
						c-0.81,0-1.49,0.31-2.03,0.92c-0.48,0.52-0.71,1.12-0.71,1.8c0,0.8,0.3,1.48,0.9,2.03c0.53,0.48,1.15,0.71,1.85,0.71
						c0.81,0,1.5-0.31,2.06-0.92C52.09,30.64,52.33,30.03,52.33,29.33z"/>
					<path class="st1" d="M59.87,39.59h-2.58V24.32h2.58v0.73c0.75-0.62,1.68-0.92,2.77-0.92c1.58,0,2.89,0.57,3.92,1.72
						c0.91,0.98,1.36,2.14,1.36,3.48c0,1.55-0.58,2.85-1.74,3.88c-1.01,0.89-2.19,1.34-3.54,1.34c-1.09,0-2.01-0.31-2.77-0.92V39.59
						z M59.87,29.23v0.23c0.03,0.77,0.34,1.41,0.94,1.93c0.53,0.46,1.14,0.69,1.82,0.69c0.81,0,1.49-0.31,2.03-0.92
						c0.48-0.52,0.71-1.13,0.71-1.82c0-0.78-0.31-1.45-0.92-2.01c-0.52-0.48-1.13-0.71-1.82-0.71c-0.8,0-1.47,0.29-2.01,0.88
						C60.15,27.99,59.9,28.57,59.87,29.23z"/>
					<path class="st1" d="M27.28,52.86H24.2l-3.75-6.44h-1.87v6.44h-2.75V37.34h6.29c1.65,0,2.91,0.47,3.77,1.41
						c0.74,0.8,1.11,1.85,1.11,3.15c0,1.26-0.35,2.28-1.05,3.06c-0.62,0.7-1.46,1.14-2.54,1.32L27.28,52.86z M18.58,43.78h3.59
						c0.68,0,1.22-0.19,1.59-0.57c0.34-0.32,0.5-0.75,0.5-1.3c0-0.64-0.22-1.14-0.65-1.49c-0.36-0.29-0.85-0.44-1.45-0.44h-3.59
						V43.78z"/>
					<path class="st1" d="M39.05,52.86h-2.58v-0.65c-0.75,0.62-1.68,0.92-2.77,0.92c-1.57,0-2.87-0.57-3.92-1.72
						c-0.91-0.99-1.36-2.16-1.36-3.5c0-1.55,0.58-2.84,1.74-3.86c0.99-0.89,2.17-1.34,3.54-1.34c1.06,0,1.99,0.31,2.77,0.92V42.9
						h2.58V52.86z M36.47,47.91c0-0.8-0.31-1.47-0.92-2.01c-0.53-0.48-1.15-0.71-1.85-0.71c-0.81,0-1.49,0.31-2.03,0.92
						c-0.48,0.52-0.71,1.12-0.71,1.8c0,0.8,0.3,1.48,0.9,2.03c0.53,0.48,1.15,0.71,1.85,0.71c0.81,0,1.5-0.31,2.06-0.92
						C36.23,49.22,36.47,48.61,36.47,47.91z"/>
					<path class="st1" d="M45.33,45.37v7.49h-2.58v-7.49h-1.57V42.9h1.57v-3.38h2.58v3.38h2.64v2.47H45.33z"/>
					<path class="st1" d="M59.73,48.73h-7.59c0.17,0.67,0.51,1.2,1.03,1.57c0.49,0.34,1.07,0.5,1.74,0.5c1.08,0,1.89-0.37,2.45-1.11
						l1.76,1.41c-0.48,0.69-1.13,1.21-1.95,1.57c-0.7,0.31-1.45,0.46-2.24,0.46c-1.61,0-2.93-0.56-3.96-1.68
						c-0.89-0.96-1.34-2.13-1.34-3.48c0-1.57,0.52-2.86,1.57-3.88c0.95-0.92,2.15-1.38,3.59-1.38c1.54,0,2.8,0.58,3.77,1.74
						c0.82,0.98,1.24,2.13,1.24,3.46C59.79,48.22,59.77,48.49,59.73,48.73z M52.22,46.84h4.97c-0.08-0.53-0.38-0.97-0.9-1.32
						c-0.45-0.31-0.96-0.46-1.53-0.46c-0.59,0-1.11,0.16-1.56,0.48C52.74,45.86,52.42,46.3,52.22,46.84z"/>
					<path class="st1" d="M72.17,52.86h-2.58v-0.65c-0.75,0.62-1.68,0.92-2.77,0.92c-1.57,0-2.87-0.57-3.92-1.72
						c-0.91-0.99-1.36-2.16-1.36-3.5c0-1.55,0.58-2.84,1.74-3.86c0.99-0.89,2.17-1.34,3.54-1.34c1.06,0,1.99,0.31,2.77,0.92v-6.29
						h2.58V52.86z M69.59,47.91c0-0.8-0.31-1.47-0.92-2.01c-0.53-0.48-1.15-0.71-1.85-0.71c-0.81,0-1.49,0.31-2.03,0.92
						c-0.48,0.52-0.71,1.12-0.71,1.8c0,0.8,0.3,1.48,0.9,2.03c0.53,0.48,1.15,0.71,1.85,0.71c0.81,0,1.5-0.31,2.06-0.92
						C69.35,49.22,69.59,48.61,69.59,47.91z"/>
				</g>
			</g>
			<g>
				<path class="st2" d="M45.45,67.86h-5.43v-1.51l2.26-2.12c0.58-0.55,1-1.04,1.26-1.47c0.26-0.43,0.39-0.84,0.39-1.24
					c0-0.42-0.11-0.74-0.34-0.98c-0.21-0.22-0.48-0.33-0.83-0.33c-0.69,0-1.13,0.43-1.3,1.3h-1.48c0.25-1.71,1.18-2.57,2.78-2.57
					c0.87,0,1.54,0.22,2.03,0.67c0.46,0.43,0.7,1.03,0.7,1.79c0,1.13-0.5,2.17-1.51,3.12l-1.96,1.84h3.43V67.86z"/>
				<path class="st2" d="M52.55,62.12v2.55c0,1.03-0.25,1.85-0.74,2.45c-0.49,0.6-1.18,0.9-2.07,0.9c-0.99,0-1.73-0.37-2.22-1.1
					c-0.39-0.58-0.59-1.33-0.59-2.25v-2.55c0-0.96,0.27-1.73,0.8-2.32c0.5-0.56,1.17-0.84,2.01-0.84c0.93,0,1.65,0.34,2.18,1.03
					C52.34,60.56,52.55,61.27,52.55,62.12z M51.05,64.64v-2.39c0-0.6-0.11-1.06-0.33-1.38c-0.23-0.32-0.56-0.48-0.98-0.48
					c-0.47,0-0.82,0.2-1.04,0.59c-0.18,0.32-0.27,0.74-0.27,1.28v2.39c0,0.66,0.1,1.15,0.3,1.45c0.21,0.34,0.55,0.51,1.02,0.51
					c0.51,0,0.87-0.2,1.08-0.6C50.97,65.68,51.05,65.23,51.05,64.64z"/>
				<path class="st2" d="M56.39,67.86h-1.55v-7.26h-1.41v-1.49h2.96V67.86z"/>
				<path class="st2" d="M60.99,67.86h-1.7l1.73-3.31c-0.14,0.02-0.3,0.04-0.46,0.04c-0.75,0-1.39-0.32-1.92-0.95
					c-0.46-0.54-0.69-1.16-0.69-1.86c0-0.84,0.32-1.53,0.96-2.09c0.55-0.49,1.2-0.73,1.94-0.73c0.87,0,1.59,0.31,2.16,0.93
					c0.5,0.54,0.74,1.17,0.74,1.89c0,0.54-0.2,1.19-0.59,1.95L60.99,67.86z M62.33,61.81c0-0.42-0.16-0.77-0.48-1.06
					c-0.28-0.26-0.61-0.39-0.99-0.39c-0.43,0-0.79,0.17-1.09,0.5c-0.25,0.28-0.38,0.6-0.38,0.96c0,0.43,0.16,0.78,0.48,1.08
					c0.28,0.25,0.61,0.38,0.98,0.38c0.43,0,0.8-0.16,1.1-0.48C62.2,62.5,62.33,62.17,62.33,61.81z"/>
			</g>
			<g>
				<path class="st2" d="M35.73,60.63c-0.06-0.19-0.22-0.3-0.42-0.3c0,0,0,0,0,0l-4.16,0.01h0c-0.04,0-0.08-0.03-0.09-0.06
					l-1.28-3.96C29.72,56.12,29.56,56,29.36,56s-0.36,0.12-0.42,0.3l-0.9,2.7c-0.24,0.7-0.97,1.1-1.41,1.26
					c-0.36,0.13-0.98,0.17-1.56-0.02c-0.65-0.21-0.88-0.27-1.46-0.37l-0.06,0.34c0.57,0.09,0.78,0.15,1.41,0.36
					c0.7,0.23,1.4,0.15,1.79,0.01c0.36-0.13,1.3-0.56,1.62-1.48l0.9-2.71c0.02-0.06,0.07-0.06,0.09-0.06c0.02,0,0.07,0.01,0.09,0.06
					l1.28,3.96c0.06,0.18,0.23,0.31,0.42,0.31h0l4.16-0.01h0c0.06,0,0.08,0.04,0.09,0.06c0.01,0.02,0.02,0.07-0.03,0.1l-3.37,2.44
					c-0.16,0.11-0.22,0.31-0.16,0.49l1.29,3.96c0.02,0.06-0.02,0.09-0.03,0.1c-0.02,0.01-0.06,0.04-0.11,0l-3.36-2.45
					c-0.16-0.11-0.36-0.11-0.52,0l-3.36,2.45c-0.09,0.06-0.19,0.04-0.25,0c-0.06-0.05-0.08-0.13-0.03-0.24c0,0,1.14-2.92,1.5-3.94
					h-0.37c-0.35,0.97-1.46,3.82-1.46,3.82c-0.1,0.24-0.04,0.48,0.14,0.63c0.1,0.08,0.22,0.12,0.34,0.12c0.11,0,0.23-0.03,0.33-0.1
					l3.36-2.45c0.03-0.02,0.08-0.02,0.11,0l3.36,2.45c0.16,0.12,0.36,0.12,0.52,0c0.16-0.11,0.22-0.31,0.16-0.49l-1.29-3.96
					c-0.01-0.04,0-0.08,0.03-0.1l3.37-2.44C35.73,61.01,35.79,60.82,35.73,60.63z"/>
				<path class="st2" d="M25.62,68.31c-0.15,0-0.29-0.05-0.4-0.14C25,68,24.93,67.71,25.05,67.43c0.01-0.03,1.11-2.85,1.45-3.81
					l0.02-0.06h0.57l-0.04,0.12c-0.36,1.01-1.49,3.91-1.5,3.94c-0.04,0.09-0.01,0.12,0.01,0.13c0.02,0.02,0.08,0.04,0.14,0
					l3.36-2.45c0.19-0.14,0.44-0.14,0.63,0l3.36,2.45l-1.3-3.96c-0.07-0.22,0.01-0.46,0.19-0.6l3.37-2.44l-4.16,0.01
					c-0.23,0-0.44-0.15-0.51-0.37l-1.28-3.96l-0.9,2.71c-0.35,0.99-1.37,1.42-1.68,1.53c-0.4,0.14-1.12,0.23-1.85-0.01
					c-0.63-0.21-0.83-0.26-1.4-0.35l-0.09-0.02l0.09-0.53l0.09,0.02c0.59,0.1,0.82,0.16,1.48,0.37c0.56,0.18,1.16,0.14,1.5,0.02
					c0.18-0.06,1.08-0.42,1.35-1.2l0.9-2.7c0.07-0.22,0.27-0.37,0.51-0.37c0.24,0,0.44,0.15,0.51,0.37l1.28,3.96l4.16-0.01
					c0.24,0,0.44,0.14,0.51,0.37v0c0.07,0.22,0,0.46-0.19,0.6l-3.37,2.44l1.29,3.96c0.07,0.22,0,0.46-0.19,0.6
					c-0.19,0.14-0.44,0.14-0.63,0l-3.36-2.45L26,68.19C25.88,68.27,25.75,68.31,25.62,68.31z M26.65,63.74
					c-0.37,1.02-1.42,3.73-1.43,3.76c-0.08,0.21-0.04,0.4,0.11,0.52c0.15,0.12,0.39,0.13,0.56,0.01l3.36-2.45
					c0.07-0.05,0.15-0.05,0.22,0l3.36,2.45c0.12,0.09,0.29,0.09,0.41,0c0.12-0.09,0.17-0.24,0.13-0.39l-1.29-3.96
					c-0.03-0.08,0-0.16,0.07-0.21l3.37-2.44c0.12-0.09,0.17-0.24,0.13-0.39l0,0c-0.05-0.15-0.18-0.24-0.33-0.24l-4.16,0.01
					c-0.08,0-0.15-0.05-0.18-0.13l-1.28-3.96c-0.05-0.15-0.18-0.24-0.33-0.24s-0.28,0.09-0.33,0.24l-0.9,2.7
					c-0.23,0.67-0.91,1.12-1.46,1.32c-0.38,0.13-1.02,0.18-1.62-0.02c-0.6-0.2-0.84-0.26-1.36-0.35l-0.03,0.16
					c0.51,0.09,0.73,0.15,1.33,0.34c0.68,0.22,1.36,0.15,1.73,0.01c0.29-0.1,1.24-0.51,1.56-1.42l0.9-2.71
					c0.03-0.09,0.11-0.13,0.18-0.13c0.07,0,0.15,0.03,0.18,0.13l1.28,3.96c0.05,0.14,0.18,0.24,0.33,0.24l4.16-0.01
					c0.08,0,0.15,0.05,0.18,0.13c0.03,0.08,0,0.16-0.07,0.21l-3.37,2.44c-0.12,0.09-0.17,0.25-0.13,0.39l1.29,3.96
					c0.03,0.1-0.01,0.17-0.07,0.21c-0.05,0.04-0.14,0.06-0.22,0l-3.36-2.45c-0.12-0.09-0.29-0.09-0.41,0l-3.36,2.45
					c-0.13,0.09-0.28,0.06-0.36-0.01c-0.06-0.05-0.14-0.15-0.06-0.34c0.01-0.03,1.05-2.71,1.45-3.81H26.65z"/>
			</g>
		</g>
	</g>
</g>
</svg>
